<svg style="height:1em;width:auto" version="1.0" xmlns="http://www.w3.org/2000/svg"
 viewBox="0 0 384.000000 288.000000"
 preserveAspectRatio="xMidYMid meet">
<g transform="translate(0.000000,288.000000) scale(0.100000,-0.100000)"
fill="currentColor" stroke="none">
<path d="M1430 2690 c-38 -38 -73 -70 -78 -70 -19 0 -26 -37 -32 -167 -4 -109
-8 -135 -23 -150 -16 -16 -48 -18 -337 -23 -289 -5 -321 -7 -337 -23 -17 -17
-18 -74 -21 -1040 -2 -1079 -3 -1064 44 -1086 36 -16 2512 -16 2548 0 47 22
46 7 44 1086 -3 966 -4 1023 -21 1040 -16 16 -48 18 -337 23 -289 5 -321 7
-337 23 -15 15 -19 41 -23 150 -6 130 -13 167 -32 167 -5 0 -40 32 -78 70 -68
70 -68 70 -490 70 -422 0 -422 0 -490 -70z m682 -1021 c13 -6 35 -28 50 -49
15 -22 43 -50 62 -62 43 -28 56 -55 56 -118 0 -64 13 -91 60 -120 47 -29 60
-56 60 -120 0 -64 -13 -91 -60 -120 -47 -29 -60 -56 -60 -120 0 -50 -16 -100
-32 -100 -11 0 -228 -217 -228 -228 0 -16 -50 -32 -100 -32 -50 0 -100 16
-100 32 0 11 -217 228 -228 228 -16 0 -32 50 -32 100 0 64 -13 91 -60 120 -47
29 -60 56 -60 120 0 64 13 91 60 120 47 29 60 56 60 120 0 63 13 89 60 122 22
15 50 43 62 62 13 19 32 40 43 45 28 13 358 14 387 0z"/>
</g>
</svg>
