<svg xmlns="http://www.w3.org/2000/svg" viewBox="0 0 41 24" preserveAspectRatio="xMidYMid meet" aria-hidden="true" focusable="false">
  <g transform="translate(2.718944 0) scale(0.030261764260856406) translate(-358.49 -136.97)">
    <g fill="currentColor">
    <path transform="matrix(1,0,0,-1,0,1080)" d="M912.5849 810.9715 820.5247 903.0317 728.4644 810.9715ZM912.5849 810.9715"/>
    <path transform="matrix(1,0,0,-1,0,1080)" d="M407.3689 886.6169H734.0233L659.9298 812.5234H486.6721V720.7203L408.2802 642.3283 407.3689 886.6169ZM407.3689 886.6169"/>
    <path transform="matrix(1,0,0,1,407.3689,193.38312)" stroke-width="2" stroke-linecap="butt" stroke-miterlimit="4" stroke-linejoin="miter" fill="none" stroke="currentColor" d="M0 0H326.6545L252.561 74.09352H79.30329V165.8967L.9112963 244.2887 0 0ZM0 0"/>
    <path transform="matrix(1,0,0,-1,0,1080)" d="M1145.209 499.7732 1237.269 591.8335 1145.209 683.8938ZM1145.209 499.7732"/>
    <path transform="matrix(1,0,0,-1,0,1080)" d="M728.4644 374.3792 820.5247 282.3189 912.5849 374.3792ZM728.4644 374.3792"/>
    <path transform="matrix(1,0,0,-1,0,1080)" d="M490.5549 683.8938 398.4947 591.8335 490.5549 499.7732ZM490.5549 683.8938"/>
    <path transform="matrix(1,0,0,-1,0,1080)" d="M1225.233 298.5983H898.5786L972.6721 372.6918H1145.93V464.495L1224.322 542.887 1225.233 298.5983ZM1225.233 298.5983"/>
    <path transform="matrix(-1,-0,0,-1,1225.233,781.40176)" stroke-width="2" stroke-linecap="butt" stroke-miterlimit="4" stroke-linejoin="miter" fill="none" stroke="currentColor" d="M0 0H326.6545L252.561 74.09352H79.30329V165.8967L.9112963 244.2887 0 0ZM0 0"/>
    <path transform="matrix(1,0,0,-1,0,1080)" d="M410.4107 300.8732H730.9815L658.2679 373.5868H488.237V463.6801L411.3051 540.6121 410.4107 300.8732ZM410.4107 300.8732"/>
    <path transform="matrix(-1,-0,0,-1,730.9815,779.12686)" stroke-width="2" stroke-linecap="butt" stroke-miterlimit="4" stroke-linejoin="miter" fill="none" stroke="currentColor" d="M320.5707 0H0L72.71357 72.71357H242.7444V162.807L319.6764 239.739 320.5707 0ZM320.5707 0"/>
    <path transform="matrix(1,0,0,-1,0,1080)" d="M1222.191 884.3421H901.6204L974.334 811.6285H1144.365V721.5351L1221.297 644.6031 1222.191 884.3421ZM1222.191 884.3421"/>
    <path transform="matrix(1,0,0,1,901.6204,195.6579)" stroke-width="2" stroke-linecap="butt" stroke-miterlimit="4" stroke-linejoin="miter" fill="none" stroke="currentColor" d="M320.5707 0H0L72.71358 72.71358H242.7444V162.807L319.6764 239.739 320.5707 0ZM320.5707 0"/>
    <path transform="matrix(1,0,0,-1,0,1080)" d="M623.1614 680.4572H708.1859V765.48178H623.1614Z"/>
    <path transform="matrix(1,0,0,-1,0,1080)" d="M937.2434 680.4572H1022.26797V765.48178H937.2434Z"/>
    <path transform="matrix(1,0,0,-1,0,1080)" d="M937.2434 421.11H1022.26797V506.13456H937.2434Z"/>
    <path transform="matrix(1,0,0,-1,0,1080)" d="M623.1614 421.11H708.1859V506.13456H623.1614Z"/>
    <path transform="matrix(1,0,0,-1,0,1080)" d="M623.1614 549.3212H708.1859V634.34579H623.1614Z"/>
    <path transform="matrix(1,0,0,-1,0,1080)" d="M937.2434 549.3212H1022.26797V634.34579H937.2434Z"/>
    <path transform="matrix(1,0,0,-1,0,1080)" d="M778.0124 421.11H863.0369V506.13456H778.0124Z"/>
    <path transform="matrix(1,0,0,-1,0,1080)" d="M778.0124 680.4572H863.0369V765.48178H778.0124Z"/>
    <path transform="matrix(1,0,0,-1,0,1080)" d="M868.9512 640.26C895.6964 613.5148 895.6964 570.1522 868.9512 543.407 842.206 516.6617 798.8434 516.6617 772.0981 543.407 745.3529 570.1522 745.3529 613.5148 772.0981 640.26 798.8434 667.0052 842.206 667.0052 868.9512 640.26ZM868.9512 640.26"/>
    <path transform="matrix(1,0,0,1,1286.37,806.0399)" stroke-width="24" stroke-linecap="butt" stroke-miterlimit="4" stroke-linejoin="miter" fill="none" stroke="currentColor" d="M0 0H150.234V82.9668H0Z"/>
    <path transform="matrix(1,0,0,1,1229.334,890.0491)" stroke-width="24" stroke-linecap="butt" stroke-miterlimit="4" stroke-linejoin="miter" fill="none" stroke="currentColor" d="M0 0H264.3062"/>
    <path transform="matrix(1,0,0,-1,0,1080)" d="M1340.703 342.8848H1279.87L1361.487 295.25 1443.104 342.8848H1382.271V423.4863H1340.703Z"/>
    </g>
  </g>
</svg>
