<?xml version="1.0" standalone="no"?>
<!DOCTYPE svg PUBLIC "-//W3C//DTD SVG 20010904//EN"
 "http://www.w3.org/TR/2001/REC-SVG-20010904/DTD/svg10.dtd">
<svg style="height:1em;width:auto" version="1.0" xmlns="http://www.w3.org/2000/svg"
 viewBox="0 0 220.000000 120.000000"
 preserveAspectRatio="xMidYMid meet">
<metadata>
Created by potrace 1.16, written by Peter Selinger 2001-2019
</metadata>
<g transform="translate(0.000000,120.000000) scale(0.100000,-0.100000)"
fill="currentColor" stroke="none">
<path d="M840 1190 c0 -15 -96 -110 -110 -110 -6 0 -10 -8 -8 -17 3 -16 19
-18 158 -18 139 0 155 2 158 18 2 9 -2 17 -8 17 -14 0 -110 95 -110 110 0 5
-18 10 -40 10 -22 0 -40 -5 -40 -10z"/>
<path d="M204 1147 c-2 -7 -3 -87 -2 -177 l3 -165 32 -3 c24 -2 34 2 43 17 6
12 17 21 25 21 11 0 15 21 17 98 l3 97 172 3 c160 2 173 4 183 22 6 11 18 20
26 20 11 0 14 9 12 38 l-3 37 -253 3 c-200 2 -254 0 -258 -11z"/>
<path d="M1047 1154 c-14 -14 -8 -74 8 -74 8 0 19 -9 25 -20 10 -18 23 -20
183 -22 l172 -3 3 -97 c2 -77 6 -98 17 -98 8 0 19 -9 25 -21 9 -15 19 -19 43
-17 l32 3 0 175 0 175 -251 3 c-138 1 -253 -1 -257 -4z"/>
<path d="M564 947 c-3 -8 -4 -34 -2 -58 l3 -44 55 0 55 0 0 55 0 55 -53 3
c-38 2 -54 -1 -58 -11z"/>
<path d="M807 954 c-4 -4 -7 -37 -7 -73 0 -64 -1 -67 -40 -101 -39 -34 -40
-37 -40 -99 0 -62 1 -65 39 -101 38 -34 40 -39 43 -106 l3 -69 75 0 75 0 3 69
c3 67 5 72 43 106 37 36 39 39 39 100 0 61 -2 64 -39 100 -38 34 -40 39 -43
106 l-3 69 -70 3 c-39 1 -74 0 -78 -4z"/>
<path d="M1084 947 c-3 -8 -4 -34 -2 -58 l3 -44 55 0 55 0 0 55 0 55 -53 3
c-38 2 -54 -1 -58 -11z"/>
<path d="M320 830 c0 -7 -27 -38 -60 -70 -73 -70 -76 -91 -20 -140 22 -19 40
-41 40 -48 0 -9 12 -12 38 -10 l37 3 0 135 c0 120 -2 135 -17 138 -10 2 -18
-2 -18 -8z"/>
<path d="M1404 827 c-2 -7 -3 -69 -2 -138 l3 -124 38 -3 c23 -2 37 1 37 8 0 7
27 39 61 71 62 59 67 79 23 79 -25 0 -124 87 -124 110 0 15 -30 12 -36 -3z"/>
<path d="M564 747 c-3 -8 -4 -43 -2 -78 l3 -64 55 0 55 0 0 75 0 75 -53 3
c-38 2 -54 -1 -58 -11z"/>
<path d="M1084 747 c-3 -8 -4 -43 -2 -78 l3 -64 55 0 55 0 0 75 0 75 -53 3
c-38 2 -54 -1 -58 -11z"/>
<path d="M204 547 c-2 -7 -3 -87 -2 -177 l3 -165 255 0 255 0 3 38 c2 28 -1
37 -12 37 -8 0 -20 9 -26 20 -10 18 -23 20 -183 22 l-172 3 -3 92 c-2 80 -5
94 -22 103 -11 6 -20 17 -20 25 0 19 -68 21 -76 2z"/>
<path d="M564 547 c-3 -8 -4 -43 -2 -78 l3 -64 55 0 55 0 0 75 0 75 -53 3
c-38 2 -54 -1 -58 -11z"/>
<path d="M1084 547 c-3 -8 -4 -43 -2 -78 l3 -64 55 0 55 0 0 75 0 75 -53 3
c-38 2 -54 -1 -58 -11z"/>
<path d="M1480 546 c0 -8 -9 -20 -20 -26 -17 -9 -20 -23 -22 -103 l-3 -92
-172 -3 c-160 -2 -173 -4 -183 -22 -6 -11 -18 -20 -26 -20 -11 0 -14 -9 -12
-37 l3 -38 255 0 255 0 0 175 0 175 -37 3 c-29 2 -38 -1 -38 -12z"/>
<path d="M1767 394 c-4 -4 -7 -20 -7 -35 0 -38 -19 -47 -40 -19 l-18 24 -31
-31 c-42 -42 -40 -68 11 -115 45 -41 43 -54 -7 -60 -26 -3 -31 -8 -35 -38 -4
-31 -9 -36 -40 -40 -32 -5 -35 -8 -38 -42 l-3 -38 221 0 221 0 -3 38 c-3 34
-6 37 -38 42 -31 4 -36 9 -40 40 -4 30 -9 35 -35 38 -50 6 -52 19 -7 60 38 35
42 44 42 85 0 55 -16 69 -41 36 -21 -28 -36 -19 -41 26 -2 25 -8 30 -33 33
-17 2 -34 0 -38 -4z"/>
<path d="M727 314 c-11 -11 -8 -34 4 -34 6 0 37 -27 69 -60 37 -38 66 -60 80
-60 14 0 43 22 80 60 32 33 63 60 70 60 6 0 10 8 8 18 -3 15 -20 17 -154 20
-82 1 -153 -1 -157 -4z"/>
</g>
</svg>
